<svg width="16" height="16" viewBox="0 0 16 16" fill="none" xmlns="http://www.w3.org/2000/svg">
<path fill-rule="evenodd" clip-rule="evenodd" d="M5 3H3V1H5V3Z" fill="#4D4D4D" fill-opacity="0.75"/>
<path fill-rule="evenodd" clip-rule="evenodd" d="M11 3H9V1H11V3Z" fill="#4D4D4D" fill-opacity="0.75"/>
<path d="M3 3H2.5C1.5 3 1 3.39543 1 4.5V12C1 13.1046 1.89543 14 3 14H6V13H3C2.44772 13 2 12.5523 2 12V6H12L13 7V4.5C13 3.39543 12.6046 3 11.5 3H11V4H9V3H5V4H3V3Z" fill="#4D4D4D" fill-opacity="0.75"/>
<path d="M8 10H12V7L16 11L12 15V12H8V10Z" fill="#4D4D4D"/>
</svg>
